<?xml version="1.0" standalone="no"?>
<!DOCTYPE svg PUBLIC "-//W3C//DTD SVG 20010904//EN"
 "http://www.w3.org/TR/2001/REC-SVG-20010904/DTD/svg10.dtd">
<svg version="1.0" xmlns="http://www.w3.org/2000/svg"
 width="1024.000000pt" height="1024.000000pt" viewBox="0 0 1024.000000 1024.000000"
 preserveAspectRatio="xMidYMid meet">

<g transform="translate(0.000000,1024.000000) scale(0.100000,-0.100000)"
fill="#000000" stroke="none">
<path d="M1260 6249 c-76 -13 -189 -69 -245 -120 -28 -26 -59 -70 -83 -117
-35 -73 -37 -80 -37 -176 0 -90 3 -108 29 -164 54 -117 166 -191 365 -239 217
-52 257 -65 306 -91 62 -34 89 -78 87 -143 -2 -90 -50 -144 -157 -174 -70 -21
-179 -16 -241 10 -75 31 -144 120 -144 185 0 30 -1 30 -52 30 -29 0 -90 -3
-135 -7 -81 -6 -83 -7 -83 -32 1 -87 60 -211 135 -279 101 -92 229 -134 410
-135 185 0 317 46 417 146 118 118 150 297 79 442 -62 125 -163 184 -429 251
-190 47 -249 71 -287 115 -72 87 -41 215 64 262 70 32 198 30 267 -6 74 -37
109 -81 138 -171 6 -18 14 -18 123 -12 65 4 119 9 121 11 2 1 -1 29 -7 62 -30
159 -144 282 -310 334 -77 24 -247 33 -331 18z"/>
<path d="M5710 6210 c-60 -10 -161 -47 -178 -64 -8 -7 -12 -20 -10 -29 3 -13
9 -13 53 -1 198 54 366 51 506 -10 73 -32 85 -34 98 -21 13 13 13 17 -3 34
-26 29 -127 70 -212 86 -80 16 -180 18 -254 5z"/>
<path d="M8784 6121 c-2 -2 -4 -64 -4 -138 l0 -133 -92 0 -93 0 3 -105 3 -105
89 0 89 0 3 -317 c4 -349 5 -355 68 -426 48 -55 117 -80 240 -84 58 -2 125 0
148 4 l44 8 1 100 2 100 -90 -3 c-80 -4 -93 -2 -117 17 -15 12 -32 39 -38 59
-5 21 -10 147 -10 290 l0 252 125 0 125 0 0 105 0 105 -125 0 -125 0 0 138 0
137 -121 0 c-66 0 -123 -2 -125 -4z"/>
<path d="M5690 6095 c-177 -38 -330 -116 -330 -167 0 -17 44 -6 108 26 224
113 436 123 626 30 100 -48 158 -101 222 -201 46 -70 85 -106 100 -90 8 7 -26
90 -57 139 -43 66 -149 163 -217 197 -138 69 -316 96 -452 66z"/>
<path d="M5730 5993 c-99 -15 -217 -62 -303 -122 -53 -36 -147 -137 -147 -157
0 -31 47 -12 105 42 71 66 167 125 250 154 76 27 220 37 297 21 142 -30 269
-130 331 -263 50 -104 61 -165 62 -313 0 -111 -4 -147 -29 -247 -16 -65 -27
-120 -24 -124 12 -11 45 6 55 29 6 13 21 63 34 112 30 117 34 334 6 435 -28
103 -82 204 -149 276 -116 124 -307 185 -488 157z"/>
<path d="M5746 5889 c-82 -12 -140 -35 -218 -86 -145 -95 -227 -227 -258 -417
-8 -50 -4 -106 9 -106 22 1 35 28 53 111 53 251 204 407 426 439 185 27 329
-45 408 -205 109 -221 45 -570 -154 -834 -44 -58 -45 -71 -7 -71 48 0 167 186
221 343 38 111 59 297 45 409 -17 150 -88 278 -192 347 -97 65 -211 89 -333
70z"/>
<path d="M4670 5869 c-224 -16 -386 -156 -441 -379 -8 -30 -14 -104 -14 -165
0 -90 5 -124 25 -185 48 -144 155 -260 287 -310 73 -28 230 -38 311 -20 122
27 235 108 283 202 27 53 51 140 41 150 -4 3 -47 7 -97 8 -146 3 -142 4 -148
-30 -9 -44 -75 -104 -130 -120 -55 -15 -131 -9 -176 15 -73 37 -117 112 -133
225 -23 153 21 311 104 370 111 81 273 46 324 -70 l18 -40 117 0 c65 0 120 3
122 8 9 15 -23 112 -54 162 -81 132 -234 194 -439 179z"/>
<path d="M6938 5868 c-95 -11 -169 -42 -228 -95 -67 -60 -85 -96 -114 -225
l-6 -28 125 0 c120 0 125 1 125 21 0 37 32 90 69 114 67 43 189 44 253 1 41
-26 78 -98 78 -148 0 -36 -1 -37 -42 -42 -24 -3 -86 -7 -138 -10 -255 -12
-424 -89 -481 -219 -32 -73 -32 -181 0 -255 29 -65 103 -134 169 -157 153 -53
379 -7 465 95 14 16 28 26 31 23 3 -4 6 -30 6 -60 l0 -53 118 0 117 0 -2 362
c-3 445 -11 495 -95 577 -85 84 -258 122 -450 99z m302 -625 c0 -115 -39 -183
-127 -221 -152 -65 -290 -21 -300 95 -8 89 50 142 178 162 93 15 117 18 187
20 l62 1 0 -57z"/>
<path d="M3592 5856 c-48 -16 -101 -53 -149 -105 l-33 -35 0 67 0 67 -115 0
-115 0 0 -510 0 -510 120 0 120 0 0 308 c0 348 5 385 66 452 48 52 107 74 184
67 74 -6 123 -36 153 -91 21 -40 22 -52 25 -388 l3 -348 120 0 120 0 -3 393
c-3 374 -4 394 -24 444 -32 77 -75 125 -146 164 -59 32 -69 34 -173 36 -73 2
-124 -2 -153 -11z"/>
<path d="M7889 5846 c-133 -46 -206 -121 -228 -235 -12 -63 -4 -127 23 -180
42 -80 149 -136 336 -176 157 -34 206 -52 230 -83 40 -50 19 -122 -44 -155
-47 -24 -158 -29 -217 -9 -45 16 -95 67 -106 110 -5 18 -12 33 -16 33 -4 -1
-59 -1 -123 -1 l-116 0 7 -47 c15 -103 89 -199 194 -252 94 -48 255 -64 383
-36 135 28 223 85 273 176 27 49 30 63 30 144 0 80 -3 95 -27 137 -52 87 -138
132 -333 173 -167 35 -196 44 -227 75 -75 75 0 170 134 170 106 0 165 -36 193
-116 l13 -39 117 -3 117 -3 -7 48 c-14 103 -81 200 -166 244 -108 55 -319 67
-440 25z"/>
<path d="M2090 5483 c0 -398 5 -443 53 -526 60 -101 158 -150 307 -151 83 -1
102 2 152 26 31 14 77 45 101 67 43 40 45 41 51 19 3 -13 6 -38 6 -55 l0 -33
115 0 115 0 -2 508 -3 507 -122 3 -123 3 0 -327 c0 -222 -4 -339 -12 -366 -14
-48 -84 -113 -137 -128 -50 -14 -116 -12 -154 4 -42 17 -83 66 -97 114 -6 22
-10 172 -10 370 l0 332 -120 0 -120 0 0 -367z"/>
<path d="M5722 5775 c-81 -18 -157 -62 -216 -125 -57 -61 -88 -126 -116 -245
-12 -49 -31 -117 -42 -150 -30 -89 -33 -115 -15 -115 37 0 74 80 106 227 37
170 105 269 226 329 118 58 274 43 347 -34 63 -65 81 -114 86 -227 9 -228 -75
-461 -232 -645 -31 -36 -56 -68 -56 -71 0 -11 43 -18 58 -10 31 18 142 168
180 244 113 231 145 496 79 642 -40 86 -68 117 -138 155 -75 40 -166 48 -267
25z"/>
<path d="M5750 5681 c-132 -41 -215 -146 -254 -321 -28 -124 -90 -258 -139
-299 -26 -21 -22 -51 7 -51 48 0 138 141 171 270 55 213 92 278 186 325 60 31
146 34 191 8 87 -51 97 -188 32 -418 -42 -148 -102 -253 -240 -423 -29 -35
-29 -36 3 -46 54 -17 219 219 281 399 47 138 69 316 49 406 -10 47 -71 117
-121 140 -42 19 -121 24 -166 10z"/>
<path d="M5739 5567 c-57 -38 -88 -95 -125 -228 -43 -152 -98 -267 -164 -341
-56 -63 -59 -74 -29 -83 61 -20 198 205 250 408 30 120 49 165 81 192 36 31
71 32 99 4 19 -19 21 -29 16 -93 -3 -39 -19 -117 -36 -174 -49 -171 -110 -283
-216 -401 -52 -58 -56 -66 -40 -77 28 -21 56 -2 127 86 100 123 180 302 213
475 25 132 19 192 -26 234 -32 29 -105 29 -150 -2z"/>
<path d="M5772 5498 c-5 -7 -19 -60 -32 -117 -46 -218 -118 -366 -239 -494
-30 -31 -33 -39 -21 -47 8 -5 23 -10 32 -10 27 0 137 139 188 240 55 108 127
369 116 416 -7 26 -28 32 -44 12z"/>
<path d="M6194 4869 c-36 -49 -37 -52 -19 -65 10 -7 22 -11 27 -7 15 8 68 95
68 110 0 31 -40 10 -76 -38z"/>
<path d="M5025 4346 c-51 -23 -77 -60 -83 -116 -8 -81 34 -121 157 -150 66
-15 105 -50 96 -83 -11 -34 -34 -47 -86 -47 -49 0 -99 28 -99 56 0 10 -13 14
-46 14 l-46 0 6 -32 c15 -77 76 -118 179 -119 122 -2 187 50 187 151 0 45 -4
56 -33 85 -29 29 -117 65 -160 65 -20 0 -67 39 -67 56 0 27 39 54 78 54 41 0
82 -23 82 -46 0 -10 12 -14 45 -14 39 0 45 3 45 21 0 34 -37 85 -74 103 -41
19 -139 20 -181 2z"/>
<path d="M5635 4341 c-85 -39 -127 -114 -129 -227 0 -60 4 -80 29 -130 43 -83
101 -118 194 -118 37 1 78 7 91 14 57 29 110 96 110 140 0 17 -6 20 -39 20
-34 0 -42 -5 -61 -35 -26 -43 -48 -55 -95 -55 -87 0 -129 54 -130 165 0 106
47 165 133 165 33 0 87 -39 97 -70 5 -15 15 -19 50 -17 29 1 45 7 45 15 0 20
-36 85 -57 104 -54 49 -166 62 -238 29z"/>
<path d="M2920 4110 l0 -240 155 0 155 0 0 45 0 45 -105 0 -105 0 0 195 0 195
-50 0 -50 0 0 -240z"/>
<path d="M3440 4110 l0 -240 45 0 45 0 0 240 0 240 -45 0 -45 0 0 -240z"/>
<path d="M3755 4313 c8 -21 46 -128 84 -238 l69 -200 51 -3 c49 -3 51 -2 66
30 19 42 155 428 155 439 0 5 -22 9 -49 9 l-50 0 -56 -175 c-31 -96 -58 -175
-59 -175 -2 0 -29 79 -61 175 l-56 175 -55 0 -54 0 15 -37z"/>
<path d="M4390 4110 l0 -240 163 2 162 3 0 40 0 40 -112 -1 -113 -1 0 63 0 64
94 0 94 0 4 40 4 40 -98 0 -98 0 0 55 0 55 113 0 112 0 2 40 3 40 -165 0 -165
0 0 -240z"/>
<path d="M6272 4298 c-47 -125 -152 -418 -152 -423 0 -3 22 -5 48 -5 l48 0 21
58 20 57 88 0 88 0 20 -57 19 -58 49 0 c27 0 49 4 49 8 0 5 -30 89 -66 188
-36 98 -74 202 -83 229 l-18 50 -56 3 -55 3 -20 -53z m105 -141 c12 -39 23
-77 23 -84 0 -8 -20 -12 -61 -11 -39 1 -59 5 -56 12 42 120 61 166 65 161 3
-3 16 -38 29 -78z"/>
<path d="M6780 4110 l0 -240 45 0 45 0 2 166 3 166 103 -166 103 -166 50 0 50
0 -1 240 -1 240 -49 0 -49 0 -3 -154 -3 -154 -95 154 -95 153 -52 1 -53 0 0
-240z"/>
</g>
</svg>
