<?xml version="1.0" standalone="no"?>
<!DOCTYPE svg PUBLIC "-//W3C//DTD SVG 20010904//EN"
 "http://www.w3.org/TR/2001/REC-SVG-20010904/DTD/svg10.dtd">
<svg version="1.0" xmlns="http://www.w3.org/2000/svg"
 width="1024.000000pt" height="1024.000000pt" viewBox="0 0 1024.000000 1024.000000"
 preserveAspectRatio="xMidYMid meet">

<g transform="translate(0.000000,1024.000000) scale(0.100000,-0.100000)"
fill="#000000" stroke="none">
<path d="M5670 6869 c-99 -12 -168 -32 -265 -79 -104 -50 -160 -98 -151 -128
10 -30 42 -28 89 4 51 34 155 80 230 101 45 12 100 17 202 17 126 0 148 -3
223 -28 54 -18 115 -49 179 -92 53 -35 102 -64 109 -64 22 0 34 33 20 58 -16
31 -107 97 -190 139 -125 63 -291 90 -446 72z"/>
<path d="M5655 6714 c-259 -54 -451 -215 -545 -453 -27 -69 -21 -104 18 -99
28 3 29 4 97 149 46 98 158 207 266 259 214 102 438 89 622 -36 177 -121 267
-298 267 -525 0 -53 -7 -133 -16 -176 -25 -116 -24 -147 3 -151 52 -8 97 142
97 328 1 165 -33 280 -120 412 -94 141 -268 257 -435 288 -50 10 -214 12 -254
4z"/>
<path d="M1150 6683 c-55 -11 -150 -63 -190 -103 -126 -126 -127 -336 -2 -457
52 -50 123 -85 258 -124 177 -51 224 -90 211 -175 -11 -69 -67 -104 -164 -104
-101 0 -167 48 -181 133 -7 39 -10 42 -40 41 -17 0 -73 -1 -123 -2 l-91 -2 6
-57 c13 -106 84 -218 172 -269 177 -104 451 -80 578 50 65 67 89 124 94 222 6
118 -15 182 -82 249 -66 66 -117 92 -281 144 -102 32 -137 47 -160 71 -87 90
19 207 154 171 66 -17 111 -67 111 -121 0 -19 6 -20 125 -20 l125 0 0 33 c-1
118 -85 238 -209 295 -48 22 -71 26 -171 28 -63 1 -126 0 -140 -3z"/>
<path d="M4353 6675 c-180 -39 -349 -201 -409 -391 -20 -61 -24 -97 -25 -188
0 -191 49 -316 170 -436 122 -120 247 -166 431 -157 126 6 197 28 292 93 76
51 136 124 173 208 14 32 25 60 23 61 -2 2 -54 14 -117 28 l-113 24 -17 -31
c-9 -17 -37 -52 -63 -78 -59 -60 -130 -83 -229 -76 -121 9 -208 71 -263 187
-29 61 -31 74 -30 166 1 78 6 113 23 158 52 134 162 217 288 217 100 0 147
-16 207 -71 30 -27 59 -63 66 -81 8 -18 14 -34 15 -36 1 -1 53 7 115 19 l112
22 -6 35 c-15 97 -122 230 -228 283 -113 57 -276 74 -415 44z"/>
<path d="M7940 6671 c-168 -54 -249 -151 -258 -306 -5 -95 7 -147 48 -203 56
-78 128 -115 356 -181 95 -28 136 -56 152 -108 29 -90 -45 -159 -162 -151
-109 7 -172 56 -184 140 l-5 41 -75 -7 c-41 -3 -97 -6 -125 -6 l-50 0 7 -51
c27 -205 194 -339 423 -339 177 0 316 70 388 195 31 53 49 146 41 211 -18 156
-117 247 -337 310 -178 50 -229 87 -229 164 0 91 171 133 251 62 16 -15 36
-45 43 -67 l14 -40 119 0 118 0 -3 50 c-4 59 -37 137 -80 186 -88 101 -303
148 -452 100z"/>
<path d="M1800 6266 c0 -383 1 -407 21 -472 40 -129 117 -214 239 -266 48 -20
72 -22 190 -22 117 0 142 3 189 22 124 52 214 148 251 269 19 61 20 93 20 469
l0 404 -125 0 -125 0 0 -363 c0 -422 -5 -458 -69 -519 -38 -36 -91 -58 -142
-58 -45 0 -118 31 -144 61 -51 61 -55 101 -55 506 l0 373 -125 0 -125 0 0
-404z"/>
<path d="M2867 6663 c-4 -3 -7 -262 -7 -575 l0 -568 125 0 125 0 2 364 3 365
218 -365 218 -364 119 0 120 0 0 575 0 575 -120 0 -120 0 -2 -362 -3 -362
-104 170 c-57 93 -157 256 -223 362 l-120 192 -112 0 c-62 0 -116 -3 -119 -7z"/>
<path d="M6905 6658 c-12 -32 -385 -1133 -385 -1135 0 -2 60 -3 133 -3 l133 0
38 115 37 115 204 0 203 0 36 -115 37 -115 134 0 c74 0 135 2 135 4 0 5 -214
625 -318 921 l-77 220 -153 3 c-116 2 -154 0 -157 -10z m225 -473 c35 -110 65
-206 68 -212 3 -10 -28 -13 -133 -13 -137 0 -137 0 -132 23 4 18 105 344 123
396 2 8 6 12 8 10 2 -2 32 -94 66 -204z"/>
<path d="M8560 6555 l0 -115 155 0 155 0 0 -460 0 -460 125 0 125 0 0 460 0
460 160 0 160 0 0 115 0 115 -440 0 -440 0 0 -115z"/>
<path d="M5661 6554 c-136 -29 -270 -116 -343 -221 -17 -25 -48 -86 -69 -136
-40 -94 -73 -138 -121 -163 -27 -14 -34 -36 -22 -68 9 -24 41 -19 89 14 56 38
93 93 134 196 71 178 216 287 403 303 151 13 256 -25 364 -134 61 -61 75 -82
100 -151 26 -72 29 -90 29 -204 -1 -182 -40 -315 -141 -476 -24 -40 -44 -77
-44 -83 0 -6 12 -16 28 -22 25 -10 30 -7 63 30 38 43 105 173 132 256 48 147
61 340 32 464 -36 153 -145 287 -287 355 -117 55 -222 68 -347 40z"/>
<path d="M5634 6391 c-124 -45 -198 -121 -247 -252 -57 -150 -93 -198 -196
-255 -42 -24 -51 -33 -49 -53 2 -13 10 -29 19 -34 35 -22 169 70 228 157 15
22 40 75 56 116 39 105 78 163 138 204 67 45 130 60 219 53 167 -14 278 -146
278 -331 0 -188 -81 -382 -229 -548 -57 -63 -63 -85 -25 -94 19 -5 34 1 62 23
90 73 210 272 247 408 23 85 31 259 15 326 -28 117 -105 215 -210 267 -47 23
-69 27 -155 29 -77 2 -112 -2 -151 -16z"/>
<path d="M5695 6253 c-34 -8 -110 -64 -134 -99 -13 -19 -41 -80 -62 -136 -48
-127 -87 -174 -207 -253 -50 -33 -93 -66 -96 -72 -8 -18 3 -40 22 -48 27 -10
141 56 216 126 79 74 112 127 147 237 38 118 98 172 194 172 47 0 95 -27 129
-73 29 -40 35 -165 11 -250 -36 -131 -98 -229 -228 -364 -94 -98 -106 -125
-53 -131 24 -3 41 10 125 95 108 109 179 215 219 325 24 64 27 88 27 193 0
105 -3 125 -22 162 -27 51 -82 96 -132 112 -38 11 -117 13 -156 4z"/>
<path d="M5690 6082 c-16 -16 -33 -49 -40 -73 -32 -128 -77 -205 -171 -295
-35 -33 -90 -76 -121 -94 -32 -19 -60 -41 -63 -49 -6 -16 22 -51 40 -51 25 0
191 118 241 171 76 81 112 150 149 282 14 51 19 58 38 55 47 -7 30 -115 -41
-251 -38 -74 -131 -175 -227 -248 -65 -49 -80 -80 -46 -99 29 -15 95 25 187
113 203 192 295 462 187 547 -39 31 -98 27 -133 -8z"/>
<path d="M4881 5160 c-91 -24 -144 -55 -200 -115 -69 -75 -85 -122 -86 -245 0
-97 2 -110 30 -163 51 -102 141 -159 347 -220 147 -44 187 -63 215 -106 64
-96 -18 -201 -157 -201 -105 0 -192 66 -206 156 l-7 46 -36 -6 c-20 -3 -82 -6
-138 -6 l-103 0 0 -27 c0 -85 48 -191 115 -259 92 -93 205 -134 365 -134 206
0 357 83 426 233 26 55 29 73 28 157 -1 120 -24 178 -98 248 -67 64 -106 83
-263 130 -72 22 -146 47 -166 57 -136 64 -107 220 44 241 94 13 180 -40 195
-121 l6 -35 98 0 c54 0 112 3 129 6 32 7 32 7 25 53 -36 251 -279 385 -563
311z"/>
<path d="M6087 5165 c-305 -63 -515 -353 -494 -681 12 -176 80 -327 198 -439
126 -118 249 -165 433 -165 181 0 324 56 436 169 60 61 152 212 138 226 -3 4
-240 55 -253 55 -2 0 -17 -24 -34 -54 -84 -150 -286 -198 -454 -108 -169 90
-243 361 -153 558 29 63 106 148 156 174 128 65 305 39 391 -58 23 -26 48 -62
55 -79 17 -39 19 -39 169 -9 128 25 126 22 73 133 -59 122 -185 225 -328 268
-77 23 -248 28 -333 10z"/>
<path d="M1998 5162 l-128 -3 0 -635 0 -635 130 3 131 3 -1 634 c0 349 -1 635
-3 635 -1 1 -59 0 -129 -2z"/>
<path d="M2428 5162 c-76 -1 -138 -4 -138 -7 0 -2 83 -244 184 -537 101 -293
198 -577 216 -631 l32 -97 166 2 167 3 47 135 c166 472 385 1126 380 1130 -4
3 -70 3 -146 0 l-139 -5 -54 -170 c-80 -255 -202 -650 -226 -732 -11 -40 -23
-73 -27 -73 -4 0 -32 84 -64 188 -105 347 -245 785 -253 791 -4 3 -70 5 -145
3z"/>
<path d="M3624 5161 c-2 -2 -4 -289 -4 -638 l0 -633 395 0 395 0 0 128 0 127
-257 0 -258 0 0 135 0 135 225 0 225 0 3 118 3 117 -231 0 -230 0 0 135 0 135
258 2 257 3 3 117 3 118 -392 2 c-215 2 -393 1 -395 -1z"/>
<path d="M7421 5160 l-155 -5 -19 -55 c-40 -116 -243 -707 -326 -952 l-87
-258 141 0 141 0 42 130 43 130 233 0 233 0 39 -127 40 -128 142 -3 c78 -1
142 1 142 6 0 5 -25 80 -56 168 -31 87 -98 281 -150 429 -53 149 -125 356
-161 460 -36 105 -70 195 -77 200 -7 6 -69 8 -165 5z m94 -542 c36 -114 68
-215 71 -223 5 -13 -15 -15 -150 -15 -95 0 -156 4 -156 10 0 5 29 100 65 212
36 111 65 205 65 209 0 4 5 20 11 36 l11 28 8 -25 c5 -14 38 -118 75 -232z"/>
<path d="M930 4525 l0 -635 388 2 387 3 0 123 0 123 -252 1 -253 1 0 508 0
509 -135 0 -135 0 0 -635z"/>
<path d="M8180 4525 l0 -635 135 0 135 0 2 389 3 389 176 -271 c97 -150 211
-325 253 -390 l76 -118 128 3 127 3 3 633 2 632 -130 0 -130 0 -2 -411 -3
-410 -102 163 c-57 90 -174 273 -261 408 l-158 245 -127 3 -127 3 0 -636z"/>
</g>
</svg>
